:SAMPLES-PER-SECOND 30
:FRAME-RANGE 1-3358
:FULLY-SPECIFIED
:DEGREES
1994
root  4.15031 38.6223 6.20896 -2.43256 51.7762 -5.78271
RightUpLeg  -14.8072 -41.3228 9.31569
RightLeg  25.1359 -20.6524 -7.28061
RightFoot  -17.0094 0.152814 5.41372
RightToes  -5.8209e-011 0 -3.6325e-017
Spine  9.02371 1.03415 4.60101
Spine1  -4.33318 2.20455 -2.60415
HEad  7.70623 0.635178 -3.32151
LeftShoulder1  0.868187 0.528543 -22.8615
LeftArm  7.2284 -2.43379 -15.6336
LeftForeArm  -6.09592 -18.6965 -8.37407
LeftHand  0.502761 -2.86066 -6.86251
RightShoulder  5.64222 14.3522 25.4744
RightArm  -32.5114 14.9608 3.51505
RightForeArm  -16.5409 2.20118 10.2571
RightHand  1.59756 3.63374 20.0717
LeftUpLeg  -7.33472 19.492 14.3755
LeftLeg  45.107 1.37062 1.87548
LeftFoot  -5.2021 0.613187 -10.8301
LeftToes  -4.03819e-010 -8.71445e-011 8.52097e-011
1995
root  3.04225 38.541 5.63232 -3.25659 60.0753 -6.86566
RightUpLeg  -20.5783 -48.7048 13.6525
RightLeg  25.9727 -17.4029 -9.0573
RightFoot  -16.3097 0.0972747 4.78868
RightToes  -5.8209e-011 0 -3.6325e-017
Spine  8.75154 0.639025 3.61056
Spine1  -4.41623 1.50185 -1.68277
HEad  7.80528 -2.81691 -3.94058
LeftShoulder1  0.98547 0.0970809 -22.5994
LeftArm  5.47015 -6.10483 -17.026
LeftForeArm  -5.12377 -18.2253 -8.67932
LeftHand  0.499141 -2.89384 -6.78161
RightShoulder  5.06244 14.0411 22.5864
RightArm  -35.6647 15.1923 1.37296
RightForeArm  -20.5922 -0.541359 8.81223
RightHand  1.34318 2.34965 19.7687
LeftUpLeg  -3.40036 21.7828 15.0681
LeftLeg  42.0549 3.22202 3.49573
LeftFoot  -3.93659 0.733924 -10.9532
LeftToes  -4.03819e-010 -8.71445e-011 8.52097e-011
1996
root  2.03756 38.4647 5.05308 -3.85168 67.5511 -7.68597
RightUpLeg  -22.8712 -43.5573 12.5534
RightLeg  28.0116 -17.5242 -10.0718
RightFoot  -14.9237 0.0485246 4.78558
RightToes  -5.8209e-011 0 -3.6325e-017
Spine  8.91008 0.520412 2.77785
Spine1  -5.0318 1.13139 -1.66531
HEad  7.49629 -6.21103 -4.66259
LeftShoulder1  1.08574 -0.288305 -22.291
LeftArm  4.84711 -8.03887 -18.5114
LeftForeArm  -4.07505 -18.0903 -8.70711
LeftHand  0.498037 -3.01009 -6.5756
RightShoulder  4.41604 13.6804 19.2135
RightArm  -39.2526 14.8848 -0.64389
RightForeArm  -25.0425 -2.95341 6.92947
RightHand  1.17125 1.30561 20.0251
LeftUpLeg  0.269295 23.1744 15.0998
LeftLeg  37.2724 7.16394 6.18197
LeftFoot  -4.9489 0.756686 -12.9767
LeftToes  -4.03819e-010 -8.71445e-011 8.52097e-011
1997
root  1.05807 38.1707 4.38484 -2.88344 74.1243 -7.32489
RightUpLeg  -25.2471 -33.0426 8.35848
RightLeg  32.6591 -15.8183 -10.8869
RightFoot  -13.9284 0.0483548 6.32341
RightToes  -5.8209e-011 0 -3.6325e-017
Spine  9.091 0.535866 2.45274
Spine1  -5.62363 1.11003 -2.63016
HEad  6.24579 -9.32236 -5.13364
LeftShoulder1  1.15569 -0.541289 -22.2286
LeftArm  7.14916 -8.8104 -18.9551
LeftForeArm  -4.17861 -18.4864 -8.44614
LeftHand  0.50234 -3.0968 -6.54429
RightShoulder  3.40921 12.4794 14.4665
RightArm  -41.6204 14.1684 -0.860133
RightForeArm  -30.068 -3.85002 5.56481
RightHand  1.01072 0.300202 20.4642
LeftUpLeg  2.8133 23.7153 13.7869
LeftLeg  31.7582 10.8383 7.50289
LeftFoot  -11.9925 -0.0622331 -23.2008
LeftToes  -4.03819e-010 -8.71445e-011 8.52097e-011
1998
root  0.0336015 37.6337 3.76978 0.485107 79.6994 -4.24188
RightUpLeg  -27.7561 -21.7273 2.39425
RightLeg  38.3326 -11.9187 -10.1863
RightFoot  -13.8219 0.107884 9.30588
RightToes  -5.8209e-011 0 -3.6325e-017
Spine  9.8367 0.632485 1.75989
Spine1  -6.08854 1.34013 -4.19158
HEad  3.881 -11.9763 -4.65973
LeftShoulder1  1.16559 -0.567711 -22.2901
LeftArm  9.3865 -8.72762 -17.9793
LeftForeArm  -5.09918 -18.7431 -8.3616
LeftHand  0.50715 -3.03136 -6.76983
RightShoulder  2.55467 11.234 10.047
RightArm  -42.2501 13.2034 -1.13162
RightForeArm  -31.9696 -4.59056 4.96468
RightHand  0.90986 -0.279388 20.6145
LeftUpLeg  3.25632 24.8045 11.9744
LeftLeg  27.6841 11.1671 6.63943
LeftFoot  -20.2767 -1.85424 -24.9133
LeftToes  -4.03819e-010 -8.71445e-011 8.52097e-011
1999
root  -1.01663 37.0514 3.33834 12.9725 84.9723 8.44958
RightUpLeg  -30.0233 -13.7113 -3.62178
RightLeg  43.4311 -8.5774 -8.88283
RightFoot  -13.8631 0.188956 12.828
RightToes  -5.8209e-011 0 -3.6325e-017
Spine  11.5526 0.619551 -0.0478969
Spine1  -6.63254 1.28387 -5.57336
HEad  1.48922 -14.024 -3.3571
LeftShoulder1  1.15238 -0.514226 -22.3447
LeftArm  9.50911 -7.69353 -15.9195
LeftForeArm  -5.52951 -18.2477 -8.87553
LeftHand  0.49471 -2.80008 -6.80446
RightShoulder  2.07029 10.4535 7.2475
RightArm  -41.6497 11.8773 -2.19682
RightForeArm  -30.8142 -5.40424 4.92948
RightHand  0.866709 -0.413289 20.2033
LeftUpLeg  0.151633 24.5955 10.0289
LeftLeg  29.3866 7.07901 4.66468
LeftFoot  -27.7801 -2.77927 -20.2059
LeftToes  -4.03819e-010 -8.71445e-011 8.52097e-011
2000
root  -2.15032 36.5351 2.9538 135.929 87.6049 132.22
RightUpLeg  -31.7197 -11.2176 -8.43486
RightLeg  48.0963 -6.27554 -7.76293
RightFoot  -12.5687 0.0906618 16.3765
RightToes  -5.8209e-011 0 -3.6325e-017
Spine  14.314 -0.0864179 -1.12714
Spine1  -6.54039 0.485784 -4.98516
HEad  -1.08876 -16.1534 -0.972677
LeftShoulder1  1.15589 -0.481026 -22.6903
LeftArm  4.10328 -6.91713 -13.2283
LeftForeArm  -1.87878 -15.1585 -11.1778
LeftHand  0.44526 -2.41443 -6.44018
RightShoulder  1.76762 9.08631 6.35863
RightArm  -41.0956 10.9111 -2.90936
RightForeArm  -29.7168 -5.96019 4.95646
RightHand  0.868648 -0.392742 20.1618
LeftUpLeg  -6.60774 21.9486 8.52305
LeftLeg  37.652 3.5035 3.28946
LeftFoot  -29.0348 -2.63745 -17.9363
LeftToes  -4.03819e-010 -8.71445e-011 8.52097e-011
2001
root  -3.0216 36.2808 2.67958 165.631 82.5742 162.8
RightUpLeg  -32.5345 -11.5899 -11.8469
RightLeg  51.2821 -4.15668 -5.90234
RightFoot  -9.54997 -0.375174 19.6323
RightToes  -5.8209e-011 0 -3.6325e-017
Spine  15.8257 -0.374883 -0.8337
Spine1  -5.6632 0.41945 -6.28947
HEad  -2.59324 -18.9286 1.04297
LeftShoulder1  1.18588 -0.58537 -22.6845
LeftArm  -3.75339 -5.86824 -11.2787
LeftForeArm  3.73373 -10.1985 -13.8059
LeftHand  0.383855 -1.80274 -6.05608
RightShoulder  1.55166 7.60642 6.2793
RightArm  -39.7847 9.3831 -3.06635
RightForeArm  -29.3313 -6.03472 5.3051
RightHand  0.916187 -0.219652 20.5085
LeftUpLeg  -9.96144 20.5568 7.86083
LeftLeg  41.1936 0.323312 0.716395
LeftFoot  -30.2884 -2.43536 -15.6026
LeftToes  -4.03819e-010 -8.71445e-011 8.52097e-011
